<?xml version="1.0" encoding="utf-8"?>
<!-- Generator: Adobe Illustrator 17.0.0, SVG Export Plug-In . SVG Version: 6.00 Build 0)  -->
<!DOCTYPE svg PUBLIC "-//W3C//DTD SVG 1.1//EN" "http://www.w3.org/Graphics/SVG/1.1/DTD/svg11.dtd">
<svg version="1.1" id="Layer_1" xmlns="http://www.w3.org/2000/svg" xmlns:xlink="http://www.w3.org/1999/xlink" x="0px" y="0px"
	 width="144.952px" height="144.952px" viewBox="0 0 144.952 144.952" enable-background="new 0 0 144.952 144.952"
	 xml:space="preserve">
<circle fill="#C9C9C9" cx="72.476" cy="72.476" r="72.476"/>
<path fill="#FFFFFF" stroke="#FFFFFF" stroke-miterlimit="10" d="M33,90.101c0,0-0.548,39,36.976,40c0,0,43.524,3,35.024-46.5
	c0,0,1.617,27.666-14,37c0,0-14,11-35.5,2c0,0-14.5-4-18-31C37.5,91.601,36.5,92.601,33,90.101z"/>
<polygon fill="#FFFFFF" stroke="#FFFFFF" stroke-miterlimit="10" points="65.667,96.768 66.334,110.768 69.977,97.768 "/>
<polygon fill="#FFFFFF" stroke="#FFFFFF" stroke-miterlimit="10" points="79.573,96.768 80.24,110.768 83.883,97.768 "/>
<polygon fill="#FFFFFF" stroke="#FFFFFF" stroke-miterlimit="10" points="91.005,94.416 91.671,113.249 95.314,95.761 "/>
<path fill="#FFFFFF" stroke="#FFFFFF" stroke-miterlimit="10" d="M55,95.101c0,0,47.333,10.167,63.833-16.333
	c0,0,9.175-17-27.829-35.833c0,0-0.338,2.667-1.338,3.667c0,0,26,7.5,13.667,21.833c0,0-39.5,30.667-74.333,12
	c0,0-9.5-8.833,5-20.667c0,0-1-4.167,0.333-5.667c0,0-28,22.833-7.333,33.333c0,0,8.833,7.167,40,1.833
	c0,0,33.167-5.667,44.167-24.667c0,0,8.667,12.5-2,19.833C109.167,84.435,90.524,97.101,55,95.101z"/>
<path fill="#FFFFFF" stroke="#FFFFFF" stroke-miterlimit="10" d="M52,40.435c0,0-31,7.333-12.333,23.833c0,0,6,4.083,10.667,5.708
	c0,0-9.833,1.875-14.667,0c0,0,20,7.875,44.667,0c0,0,30.167-11.708,9.167-19.375c0,0-25.333-5.959-35.833,6.354
	c0,0-3.5,8.479,17.667,4.313c0,0-19.833-0.5-11.333-5.167c0,0,12-8.333,27.333-2.667c0,0,12.653,4.396-6.5,12.167
	c0,0-16.667,6.667-33,0c0,0-19.333-8-5-18.5c0,0,6.5-3.833,8.833-2.333C51.667,44.768,51,40.601,52,40.435z"/>
<path fill="#FFFFFF" stroke="#FFFFFF" stroke-miterlimit="10" d="M75.334,29.268c0,0-30.667-6.667-21.167,22.667
	c0,0,2.5,5.708,23.167,5.021c0,0,18.167-5.854,12-19.854C89.334,37.101,83.673,29.88,75.334,29.268z"/>
<path fill="#FFFFFF" stroke="#FFFFFF" stroke-miterlimit="10" d="M75.334,29.268c0,0,7.035-18.119,30.767-15.476
	c0,0,18.566,6.976-1.101,16.143c0,0-6.667-1.333-2-7c0,0,3.226-3.111,5.167,0.5c0,0,5.667,0,0.833-5.833c0,0-8.833-5.24-21.833,4.13
	c0,0-8.968,5.037-9.567,7.87L75.334,29.268z"/>
</svg>
